<svg width="200px" xmlns="http://www.w3.org/2000/svg" xmlns:xlink="http://www.w3.org/1999/xlink" viewBox="0 0 352 100">
    <defs>
        <g id="block" fill="#61DAFB" stroke="#61DAFB">
            <rect x='2' y='2' width="18" height="18" rx="5" ry="5" fill='none' stroke-width="4" />
            <circle cx="11" cy="11" r="4" />
        </g>
    </defs>
    <use xlink:href="#block" x="12" y="0" />
    <use xlink:href="#block" x="37" y="0" />
    <use xlink:href="#block" x="62" y="0" />
    <use xlink:href="#block" x="87" y="0" />
    <use xlink:href="#block" x="0" y="25" />
    <use xlink:href="#block" x="0" y="50" />
    <use xlink:href="#block" x="0" y="75" />
    <use xlink:href="#block" x="50" y="25" />
    <use xlink:href="#block" x="50" y="50" />
    <use xlink:href="#block" x="50" y="75" />
    <use xlink:href="#block" x="100" y="25" />
    <use xlink:href="#block" x="100" y="50" />
    <use xlink:href="#block" x="100" y="75" />

    <use xlink:href="#block" x="160" y="0" />
    <use xlink:href="#block" x="185" y="0" />
    <use xlink:href="#block" x="210" y="0" />
    <use xlink:href="#block" x="160" y="75" />
    <use xlink:href="#block" x="185" y="75" />
    <use xlink:href="#block" x="210" y="75" />
    <use xlink:href="#block" x="150" y="25" />
    <use xlink:href="#block" x="150" y="50" />
    <use xlink:href="#block" x="220" y="25" />
    <use xlink:href="#block" x="220" y="50" />

    <use xlink:href="#block" x="270" y="0" />
    <use xlink:href="#block" x="270" y="25" />
    <use xlink:href="#block" x="270" y="50" />
    <use xlink:href="#block" x="270" y="75" />
    <use xlink:href="#block" x="295" y="0" />
    <use xlink:href="#block" x="295" y="75" />
    <use xlink:href="#block" x="320" y="0" />
    <use xlink:href="#block" x="320" y="75" />
    <use xlink:href="#block" x="330" y="25" />
    <use xlink:href="#block" x="330" y="50" />
</svg>